<svg xmlns="http://www.w3.org/2000/svg" viewBox="0 0 122.3 23.3">
    <defs>
        <style>.abc{fill:#000000;}.b{fill:#32dcab;}</style>
    </defs>
    <path class="abc"
          d="M0,5.9H3.8V7.6A4.6,4.6,0,0,1,5.4,6.1a4,4,0,0,1,2.2-.4V9.4a3.9,3.9,0,0,0-2.8.6,2.7,2.7,0,0,0-1,2.4v5.8H0Z"/>
    <path class="abc"
          d="M14.6,5.6a6.7,6.7,0,0,1,2.6.5,5.8,5.8,0,0,1,1.9,1.5A6.6,6.6,0,0,1,20.2,10a7.7,7.7,0,0,1,.2,3.1H11.7A3.1,3.1,0,0,0,13,14.8a5.3,5.3,0,0,0,2.6.7,7.8,7.8,0,0,0,2.1-.4,7.5,7.5,0,0,0,1.8-.8v3.1a5.3,5.3,0,0,1-2,.9l-2.4.2a7.5,7.5,0,0,1-2.6-.4,6.7,6.7,0,0,1-2.2-1.3,6.2,6.2,0,0,1-1.5-2.1,5.3,5.3,0,0,1-.6-2.6,7,7,0,0,1,.5-2.5,7.7,7.7,0,0,1,1.4-2.1,6,6,0,0,1,2-1.4A6.6,6.6,0,0,1,14.6,5.6Zm-2.8,5.1H17a2.8,2.8,0,0,0-.8-1.5,2.4,2.4,0,0,0-1.7-.6,2.8,2.8,0,0,0-1.6.5A3.1,3.1,0,0,0,11.8,10.7Z"/>
    <path class="abc"
          d="M49.4,15.6a2,2,0,0,0,1.1-.2,1,1,0,0,0,.4-.7c0-.2-.1-.3-.2-.5l-.7-.4-2.3-.9a4.4,4.4,0,0,1-1.8-1.3,3.3,3.3,0,0,1-.5-2,3.3,3.3,0,0,1,.4-1.7,4.1,4.1,0,0,1,1-1.3,5.1,5.1,0,0,1,1.5-.7,5.5,5.5,0,0,1,3.6,0,5.1,5.1,0,0,1,1.7.7V9.9a8.1,8.1,0,0,0-1.8-1,3.8,3.8,0,0,0-1.7-.4c-.8,0-1.3.3-1.3.9a.5.5,0,0,0,.3.5l.8.5,2.2.9a2.9,2.9,0,0,1,1.7,1.3,2.9,2.9,0,0,1,.6,1.9,4.8,4.8,0,0,1-.4,1.8,3.4,3.4,0,0,1-1.2,1.2,4.8,4.8,0,0,1-1.6.8l-1.8.2a7.8,7.8,0,0,1-2.2-.3,6,6,0,0,1-2-.8V14a6.7,6.7,0,0,0,2,1.2A5.7,5.7,0,0,0,49.4,15.6Z"/>
    <path class="abc"
          d="M62,5.6h1.4l1.3.4V9.6L63.5,9H62.3a2.7,2.7,0,0,0-1.3.2,2.6,2.6,0,0,0-1,.7,2.3,2.3,0,0,0-.7,1,2.8,2.8,0,0,0-.3,1.3,2.7,2.7,0,0,0,.3,1.2,2.6,2.6,0,0,0,.7,1.1,3.3,3.3,0,0,0,1,.6,2.8,2.8,0,0,0,1.3.3l1.2-.2,1.2-.6V18l-1.2.4H62a5.3,5.3,0,0,1-2.5-.5,5.7,5.7,0,0,1-2.1-1.3A6,6,0,0,1,56,14.6a5.4,5.4,0,0,1-.6-2.5A5.8,5.8,0,0,1,56,9.5a4.8,4.8,0,0,1,1.4-2,6,6,0,0,1,2.1-1.4A7,7,0,0,1,62,5.6Z"/>
    <path class="abc"
          d="M72.6,5.6a7.5,7.5,0,0,1,2.6.5,7.4,7.4,0,0,1,2.1,1.3,6,6,0,0,1,1.4,2.1,5.5,5.5,0,0,1,.6,2.6,5.8,5.8,0,0,1-.6,2.6,6.6,6.6,0,0,1-1.4,2A5.7,5.7,0,0,1,75.2,18,7,7,0,0,1,70,18a5.7,5.7,0,0,1-2.1-1.3,6,6,0,0,1-1.4-2.1,5.1,5.1,0,0,1-.5-2.5,5.5,5.5,0,0,1,.5-2.6,6,6,0,0,1,1.4-2.1A7.4,7.4,0,0,1,70,6.1,7.5,7.5,0,0,1,72.6,5.6Zm0,9.7,1.2-.2a3.1,3.1,0,0,0,.9-.7,2.1,2.1,0,0,0,.6-1,2.8,2.8,0,0,0,.3-1.3,3.2,3.2,0,0,0-.9-2.4,2.9,2.9,0,0,0-4.2,0,3.2,3.2,0,0,0-.9,2.4,3.2,3.2,0,0,0,.9,2.3A2.6,2.6,0,0,0,72.6,15.3Z"/>
    <path class="abc"
          d="M81.1,5.9h3.8V7.2A4,4,0,0,1,86.5,6a4.6,4.6,0,0,1,2.1-.4,7,7,0,0,1,2.5.5,6.2,6.2,0,0,1,1.8,1.4,7.2,7.2,0,0,1,1.2,2.1,6.9,6.9,0,0,1,.4,2.5,6.7,6.7,0,0,1-.4,2.4,7.2,7.2,0,0,1-1.2,2.1A5.5,5.5,0,0,1,91,18a4.7,4.7,0,0,1-2.4.5,5.4,5.4,0,0,1-2.2-.4,4.4,4.4,0,0,1-1.5-1.2v6.4H81.1Zm6.7,9.4a2.5,2.5,0,0,0,1.2-.2l1-.7.6-1a5.9,5.9,0,0,0,.2-1.3,5.1,5.1,0,0,0-.2-1.3L90,9.7a3.3,3.3,0,0,0-1-.6,2.7,2.7,0,0,0-1.2-.3L86.6,9a2.2,2.2,0,0,0-.9.7,4.1,4.1,0,0,0-.7,1.1,5.1,5.1,0,0,0-.2,1.3,5.9,5.9,0,0,0,.2,1.3,3.6,3.6,0,0,0,.7,1,2.2,2.2,0,0,0,.9.7A2.5,2.5,0,0,0,87.8,15.3Z"/>
    <path class="abc"
          d="M101.9,5.6a7.2,7.2,0,0,1,2.7.5,5.8,5.8,0,0,1,1.9,1.5,6.6,6.6,0,0,1,1.1,2.4,7.7,7.7,0,0,1,.2,3.1H99.1a2.7,2.7,0,0,0,1.3,1.7,5.3,5.3,0,0,0,2.6.7,7.8,7.8,0,0,0,2.1-.4,7.5,7.5,0,0,0,1.8-.8v3.1a6.1,6.1,0,0,1-2,.9l-2.4.2a8.4,8.4,0,0,1-2.7-.4,7.4,7.4,0,0,1-2.1-1.3,5.1,5.1,0,0,1-1.5-2.1,5.3,5.3,0,0,1-.6-2.6,7,7,0,0,1,.5-2.5,7.4,7.4,0,0,1,1.3-2.1,7.7,7.7,0,0,1,2.1-1.4A6.4,6.4,0,0,1,101.9,5.6Zm-2.7,5.1h5.2a2.8,2.8,0,0,0-.8-1.5,2.5,2.5,0,0,0-1.7-.6,3.4,3.4,0,0,0-1.7.5A3.7,3.7,0,0,0,99.2,10.7Z"/>
    <path class="abc"
          d="M114.9,5.6A5.2,5.2,0,0,1,117,6a4,4,0,0,1,1.6,1.2V0h3.7V18.2h-3.7V16.9a4,4,0,0,1-1.6,1.2,5.2,5.2,0,0,1-2.1.4,5.3,5.3,0,0,1-2.5-.5,6.2,6.2,0,0,1-1.8-1.4,4.5,4.5,0,0,1-1.2-2.1,6.9,6.9,0,0,1-.5-2.4,7,7,0,0,1,.5-2.5,5.3,5.3,0,0,1,1.1-2.1,8.5,8.5,0,0,1,1.9-1.4A6.2,6.2,0,0,1,114.9,5.6Zm.8,9.7a2.5,2.5,0,0,0,1.2-.2l.9-.7a2.1,2.1,0,0,0,.6-1,3.1,3.1,0,0,0,.3-1.3,2.8,2.8,0,0,0-.3-1.3,2.4,2.4,0,0,0-.6-1.1l-.9-.7-1.2-.2a2.1,2.1,0,0,0-1.2.3,3.3,3.3,0,0,0-1,.6,2.4,2.4,0,0,0-.6,1.1,2.7,2.7,0,0,0-.2,1.3,3,3,0,0,0,.2,1.3,2.1,2.1,0,0,0,.6,1l1,.7A2.2,2.2,0,0,0,115.7,15.3Z"/>
    <polygon class="b" points="28.9 12.1 28.9 18.2 22.5 18.2 22.5 10.9 27.9 5.2 27.9 0.2 34.3 0.2 34.3 6.4 28.9 12.1"/>
    <polygon class="b" points="39.1 13.2 39.1 18.2 32.7 18.2 32.7 12.1 38 6.4 38 0.2 44.5 0.2 44.5 7.6 39.1 13.2"/>
</svg>
